<svg width="22" height="18" viewBox="0 0 22 18" fill="none" xmlns="http://www.w3.org/2000/svg">
<path d="M0.75 14.6248C0.75 15.3209 1.02656 15.9886 1.51884 16.4809C2.01113 16.9732 2.67881 17.2498 3.375 17.2498H19.125C19.8212 17.2498 20.4889 16.9732 20.9812 16.4809C21.4734 15.9886 21.75 15.3209 21.75 14.6248V7.40601H0.75V14.6248ZM3.84375 11.0623C3.84375 10.6893 3.99191 10.3316 4.25563 10.0679C4.51935 9.80416 4.87704 9.65601 5.25 9.65601H7.5C7.87296 9.65601 8.23065 9.80416 8.49437 10.0679C8.75809 10.3316 8.90625 10.6893 8.90625 11.0623V11.9998C8.90625 12.3727 8.75809 12.7304 8.49437 12.9941C8.23065 13.2578 7.87296 13.406 7.5 13.406H5.25C4.87704 13.406 4.51935 13.2578 4.25563 12.9941C3.99191 12.7304 3.84375 12.3727 3.84375 11.9998V11.0623ZM19.125 0.749756H3.375C2.67881 0.749756 2.01113 1.02632 1.51884 1.5186C1.02656 2.01088 0.75 2.67856 0.75 3.37476V4.59351H21.75V3.37476C21.75 2.67856 21.4734 2.01088 20.9812 1.5186C20.4889 1.02632 19.8212 0.749756 19.125 0.749756Z" fill="white"/>
</svg>
