<svg width="21" height="20" viewBox="0 0 21 20" fill="none" xmlns="http://www.w3.org/2000/svg">
<path fill-rule="evenodd" clip-rule="evenodd" d="M10.25 -0.000244141C15.773 -0.000244141 20.25 4.47676 20.25 9.99976C20.25 15.5228 15.773 19.9998 10.25 19.9998C4.727 19.9998 0.25 15.5228 0.25 9.99976C0.25 4.47676 4.727 -0.000244141 10.25 -0.000244141ZM2.321 11.0708C2.55601 12.8069 3.35416 14.418 4.59298 15.6568C5.8318 16.8956 7.44287 17.6937 9.179 17.9288C8.94414 16.1923 8.14594 14.5809 6.9069 13.3419C5.66786 12.1028 4.05646 11.3046 2.32 11.0698L2.321 11.0708ZM18.179 11.0708C16.4429 11.3058 14.8318 12.1039 13.593 13.3427C12.3542 14.5816 11.556 16.1926 11.321 17.9288C13.0571 17.6937 14.6682 16.8956 15.907 15.6568C17.1458 14.418 17.944 12.8069 18.179 11.0708ZM10.25 5.36376C9.26686 7.38424 7.63448 9.01661 5.614 9.99976C7.63448 10.9829 9.26686 12.6153 10.25 14.6358C11.2331 12.6153 12.8655 10.9829 14.886 9.99976C12.8655 9.01661 11.2331 7.38424 10.25 5.36376ZM9.179 2.07076C7.44261 2.30577 5.83129 3.10403 4.59228 4.34304C3.35327 5.58205 2.55502 7.19336 2.32 8.92976C4.05678 8.69505 5.66853 7.89679 6.90778 6.65754C8.14704 5.41828 8.9453 3.80654 9.18 2.06976L9.179 2.07076ZM11.321 2.07076C11.556 3.80688 12.3542 5.41795 13.593 6.65678C14.8318 7.8956 16.4429 8.69375 18.179 8.92876C17.9441 7.1923 17.1459 5.58089 15.9069 4.34185C14.6679 3.10282 13.0565 2.30461 11.32 2.06976L11.321 2.07076Z" fill="white"/>
</svg>
