<svg width="21" height="16" viewBox="0 0 21 16" fill="none" xmlns="http://www.w3.org/2000/svg">
<path d="M17.75 -0.000244136C18.5152 -0.000286762 19.2515 0.292081 19.8083 0.817039C20.365 1.342 20.7001 2.05986 20.745 2.82376L20.75 2.99976V4.81676C20.7477 5.08684 20.675 5.35165 20.5388 5.58493C20.4027 5.81822 20.208 6.01189 19.974 6.14676L19.867 6.20476C19.5435 6.36356 19.2689 6.60683 19.0722 6.90885C18.8756 7.21088 18.7642 7.56043 18.7498 7.92055C18.7355 8.28067 18.8187 8.63797 18.9907 8.95468C19.1627 9.27138 19.4171 9.53573 19.727 9.71976L19.867 9.79476C20.3 10.0088 20.687 10.4508 20.743 11.0348L20.75 11.1828V12.9998C20.75 13.765 20.4577 14.5013 19.9327 15.058C19.4078 15.6148 18.6899 15.9499 17.926 15.9948L17.75 15.9998H3.75C2.98479 15.9998 2.24849 15.7074 1.69174 15.1825C1.13499 14.6575 0.799892 13.9396 0.755 13.1758L0.75 12.9998V11.1828C0.75 10.5768 1.102 10.1048 1.526 9.85276L1.633 9.79476C1.95653 9.63595 2.23114 9.39268 2.42779 9.09066C2.62445 8.78863 2.73583 8.43908 2.75017 8.07896C2.76452 7.71885 2.68129 7.36154 2.50928 7.04484C2.33727 6.72813 2.08288 6.46378 1.773 6.27976L1.633 6.20476C1.2 5.99076 0.813 5.54876 0.757 4.96476L0.75 4.81776V2.99976C0.749957 2.23454 1.04233 1.49824 1.56728 0.941495C2.09224 0.384749 2.81011 0.0496483 3.574 0.00475598L3.75 -0.000244136H17.75ZM8.75 4.99976C8.48478 4.99976 8.23043 5.10511 8.04289 5.29265C7.85536 5.48019 7.75 5.73454 7.75 5.99976V9.99976C7.75 10.265 7.85536 10.5193 8.04289 10.7069C8.23043 10.8944 8.48478 10.9998 8.75 10.9998C9.01522 10.9998 9.26957 10.8944 9.45711 10.7069C9.64464 10.5193 9.75 10.265 9.75 9.99976V5.99976C9.75 5.73454 9.64464 5.48019 9.45711 5.29265C9.26957 5.10511 9.01522 4.99976 8.75 4.99976Z" fill="white"/>
</svg>
