<svg width="22" height="18" viewBox="0 0 22 18" fill="none" xmlns="http://www.w3.org/2000/svg">
<path fill-rule="evenodd" clip-rule="evenodd" d="M19.8501 5.00376C19.7951 4.99976 19.7341 4.99976 19.6701 4.99976H17.1451C15.0771 4.99976 13.3081 6.62776 13.3081 8.74976C13.3081 10.8718 15.0781 12.4998 17.1451 12.4998H19.6701C19.7341 12.4998 19.7951 12.4998 19.8521 12.4958C20.2771 12.4701 20.6783 12.2909 20.981 11.9913C21.2836 11.6918 21.4671 11.2925 21.4971 10.8678C21.5011 10.8078 21.5011 10.7428 21.5011 10.6828V6.81676C21.5011 6.75676 21.5011 6.69176 21.4971 6.63176C21.4671 6.20702 21.2836 5.80769 20.981 5.50817C20.6783 5.20866 20.2771 5.02938 19.8521 5.00376H19.8501ZM16.9221 9.74976C17.4541 9.74976 17.8851 9.30176 17.8851 8.74976C17.8851 8.19776 17.4541 7.74976 16.9221 7.74976C16.3891 7.74976 15.9581 8.19776 15.9581 8.74976C15.9581 9.30176 16.3891 9.74976 16.9221 9.74976Z" fill="white"/>
<path fill-rule="evenodd" clip-rule="evenodd" d="M19.668 13.9998C19.7026 13.9984 19.737 14.0052 19.7684 14.0196C19.7999 14.034 19.8275 14.0556 19.849 14.0827C19.8706 14.1098 19.8854 14.1415 19.8924 14.1754C19.8993 14.2093 19.8981 14.2444 19.889 14.2778C19.689 14.9898 19.37 15.5978 18.859 16.1078C18.11 16.8578 17.161 17.1888 15.989 17.3468C14.849 17.4998 13.394 17.4998 11.556 17.4998H9.444C7.606 17.4998 6.15 17.4998 5.011 17.3468C3.839 17.1888 2.89 16.8568 2.141 16.1088C1.393 15.3598 1.061 14.4108 0.903 13.2388C0.75 12.0988 0.75 10.6438 0.75 8.80576V8.69376C0.75 6.85576 0.75 5.39976 0.903 4.25976C1.061 3.08776 1.393 2.13876 2.141 1.38976C2.89 0.641756 3.839 0.309756 5.011 0.151756C6.151 -0.000244185 7.606 -0.000244141 9.444 -0.000244141H11.556C13.394 -0.000244141 14.85 -0.000244021 15.989 0.152756C17.161 0.310756 18.11 0.642756 18.859 1.39076C19.37 1.90276 19.689 2.50976 19.889 3.22176C19.8981 3.25512 19.8993 3.29018 19.8924 3.32408C19.8854 3.35797 19.8706 3.38975 19.849 3.41684C19.8275 3.44392 19.7999 3.46554 19.7684 3.47995C19.737 3.49436 19.7026 3.50114 19.668 3.49976H17.144C14.307 3.49976 11.807 5.73976 11.807 8.74976C11.807 11.7598 14.307 13.9998 17.144 13.9998H19.668ZM4.5 3.99976C4.30109 3.99976 4.11032 4.07877 3.96967 4.21943C3.82902 4.36008 3.75 4.55084 3.75 4.74976C3.75 4.94867 3.82902 5.13943 3.96967 5.28009C4.11032 5.42074 4.30109 5.49976 4.5 5.49976H8.5C8.69891 5.49976 8.88968 5.42074 9.03033 5.28009C9.17098 5.13943 9.25 4.94867 9.25 4.74976C9.25 4.55084 9.17098 4.36008 9.03033 4.21943C8.88968 4.07877 8.69891 3.99976 8.5 3.99976H4.5Z" fill="white"/>
</svg>
