<svg width="21" height="17" viewBox="0 0 21 17" fill="none" xmlns="http://www.w3.org/2000/svg">
<path fill-rule="evenodd" clip-rule="evenodd" d="M12.3418 15.2358L12.3477 13.2328C12.3477 12.9669 12.4534 12.7119 12.6414 12.5239C12.8294 12.3359 13.0844 12.2303 13.3503 12.2303C13.6161 12.2303 13.8711 12.3359 14.0591 12.5239C14.2471 12.7119 14.3527 12.9669 14.3527 13.2328V15.2098C14.3527 15.6908 14.3527 15.9318 14.5068 16.0798C14.6617 16.2268 14.8967 16.2168 15.3697 16.1968C17.2327 16.1178 18.3778 15.8668 19.1838 15.0608C19.9937 14.2548 20.2447 13.1098 20.3237 11.2438C20.3387 10.8738 20.3468 10.6878 20.2778 10.5648C20.2078 10.4418 19.9328 10.2878 19.3808 9.97878C19.0698 9.80544 18.8108 9.5522 18.6305 9.24525C18.4502 8.9383 18.3551 8.58877 18.3551 8.23278C18.3551 7.87679 18.4502 7.52726 18.6305 7.22031C18.8108 6.91336 19.0698 6.66012 19.3808 6.48678C19.9328 6.17878 20.2087 6.02378 20.2778 5.90078C20.3468 5.77778 20.3388 5.59278 20.3228 5.22178C20.2448 3.35578 19.9928 2.21178 19.1838 1.40478C18.3067 0.52878 17.0287 0.307781 14.8617 0.251781C14.7954 0.250044 14.7294 0.261617 14.6676 0.285815C14.6058 0.310013 14.5494 0.346346 14.5019 0.392671C14.4543 0.438996 14.4166 0.494373 14.3908 0.555535C14.365 0.616697 14.3517 0.682405 14.3517 0.74878V3.23278C14.3517 3.49866 14.2461 3.75365 14.0581 3.94166C13.8701 4.12966 13.6151 4.23528 13.3492 4.23528C13.0834 4.23528 12.8284 4.12966 12.6404 3.94166C12.4524 3.75365 12.3467 3.49866 12.3467 3.23278L12.3397 0.731781C12.3395 0.599346 12.2867 0.472425 12.193 0.378873C12.0992 0.285321 11.9722 0.23278 11.8397 0.23278H8.32775C4.54775 0.23278 2.65775 0.23278 1.48275 1.40478C0.67275 2.21078 0.42175 3.35578 0.34275 5.22178C0.32775 5.59178 0.31975 5.77778 0.38875 5.90078C0.45875 6.02378 0.73375 6.17878 1.28575 6.48678C1.59668 6.66012 1.85569 6.91336 2.03599 7.22031C2.2163 7.52726 2.31136 7.87679 2.31136 8.23278C2.31136 8.58877 2.2163 8.9383 2.03599 9.24525C1.85569 9.5522 1.59668 9.80544 1.28575 9.97878C0.73375 10.2878 0.45775 10.4418 0.38875 10.5648C0.31975 10.6878 0.32775 10.8728 0.34375 11.2428C0.42175 13.1098 0.67375 14.2548 1.48275 15.0608C2.65775 16.2328 4.54775 16.2328 8.32875 16.2328H11.3387C11.8108 16.2328 12.0457 16.2328 12.1927 16.0868C12.3398 15.9408 12.3407 15.7068 12.3418 15.2358ZM14.3517 9.23278V7.23278C14.3517 6.9669 14.2461 6.71191 14.0581 6.52391C13.8701 6.3359 13.6151 6.23028 13.3492 6.23028C13.0834 6.23028 12.8284 6.3359 12.6404 6.52391C12.4524 6.71191 12.3467 6.9669 12.3467 7.23278V9.23278C12.3467 9.49879 12.4524 9.75391 12.6405 9.94201C12.8286 10.1301 13.0837 10.2358 13.3497 10.2358C13.6158 10.2358 13.8709 10.1301 14.059 9.94201C14.2471 9.75391 14.3517 9.49879 14.3517 9.23278Z" fill="white"/>
</svg>
