<svg width="25" height="25" viewBox="0 0 25 25" fill="none" xmlns="http://www.w3.org/2000/svg">
<g clip-path="url(#clip0_302_616)">
<path d="M12.3335 2.5C17.8565 2.5 22.3335 6.977 22.3335 12.5C22.3348 14.0526 21.974 15.5841 21.2798 16.9728C20.5856 18.3615 19.5771 19.5692 18.3345 20.5H20.3335C20.5987 20.5 20.8531 20.6054 21.0406 20.7929C21.2281 20.9804 21.3335 21.2348 21.3335 21.5C21.3335 21.7652 21.2281 22.0196 21.0406 22.2071C20.8531 22.3946 20.5987 22.5 20.3335 22.5H12.3335C6.8105 22.5 2.3335 18.023 2.3335 12.5C2.3335 6.977 6.8105 2.5 12.3335 2.5ZM12.3335 14.5C11.8031 14.5 11.2944 14.7107 10.9193 15.0858C10.5442 15.4609 10.3335 15.9696 10.3335 16.5C10.3335 17.0304 10.5442 17.5391 10.9193 17.9142C11.2944 18.2893 11.8031 18.5 12.3335 18.5C12.8639 18.5 13.3726 18.2893 13.7477 17.9142C14.1228 17.5391 14.3335 17.0304 14.3335 16.5C14.3335 15.9696 14.1228 15.4609 13.7477 15.0858C13.3726 14.7107 12.8639 14.5 12.3335 14.5ZM8.3335 10.5C7.80306 10.5 7.29436 10.7107 6.91928 11.0858C6.54421 11.4609 6.3335 11.9696 6.3335 12.5C6.3335 13.0304 6.54421 13.5391 6.91928 13.9142C7.29436 14.2893 7.80306 14.5 8.3335 14.5C8.86393 14.5 9.37264 14.2893 9.74771 13.9142C10.1228 13.5391 10.3335 13.0304 10.3335 12.5C10.3335 11.9696 10.1228 11.4609 9.74771 11.0858C9.37264 10.7107 8.86393 10.5 8.3335 10.5ZM16.3335 10.5C15.8031 10.5 15.2944 10.7107 14.9193 11.0858C14.5442 11.4609 14.3335 11.9696 14.3335 12.5C14.3335 13.0304 14.5442 13.5391 14.9193 13.9142C15.2944 14.2893 15.8031 14.5 16.3335 14.5C16.8639 14.5 17.3726 14.2893 17.7477 13.9142C18.1228 13.5391 18.3335 13.0304 18.3335 12.5C18.3335 11.9696 18.1228 11.4609 17.7477 11.0858C17.3726 10.7107 16.8639 10.5 16.3335 10.5ZM12.3335 6.5C11.8031 6.5 11.2944 6.71071 10.9193 7.08579C10.5442 7.46086 10.3335 7.96957 10.3335 8.5C10.3335 9.03043 10.5442 9.53914 10.9193 9.91421C11.2944 10.2893 11.8031 10.5 12.3335 10.5C12.8639 10.5 13.3726 10.2893 13.7477 9.91421C14.1228 9.53914 14.3335 9.03043 14.3335 8.5C14.3335 7.96957 14.1228 7.46086 13.7477 7.08579C13.3726 6.71071 12.8639 6.5 12.3335 6.5Z" fill="white"/>
</g>
<defs>
<clipPath id="clip0_302_616">
<rect width="24" height="24" fill="white" transform="translate(0.333496 0.5)"/>
</clipPath>
</defs>
</svg>
