<svg width="21" height="20" viewBox="0 0 21 20" fill="none" xmlns="http://www.w3.org/2000/svg">
<path d="M20.3247 18.0481C19.0393 15.7922 17.0322 14.0344 14.6265 13.0578C15.8229 12.1605 16.7066 10.9096 17.1525 9.48222C17.5983 8.05483 17.5838 6.52333 17.1109 5.10466C16.638 3.68598 15.7307 2.45206 14.5176 1.57768C13.3045 0.703297 11.847 0.23278 10.3515 0.23278C8.85613 0.23278 7.39862 0.703297 6.18548 1.57768C4.97234 2.45206 4.06507 3.68598 3.59217 5.10466C3.11928 6.52333 3.10475 8.05483 3.55063 9.48222C3.99652 10.9096 4.88021 12.1605 6.07654 13.0578C3.67084 14.0344 1.66377 15.7922 0.378418 18.0481C0.298773 18.1762 0.24569 18.3189 0.222324 18.4679C0.198959 18.6169 0.205788 18.7691 0.242407 18.9154C0.279025 19.0617 0.344684 19.1991 0.435481 19.3195C0.526279 19.4399 0.64036 19.5409 0.770944 19.6163C0.901527 19.6918 1.04595 19.7402 1.19562 19.7587C1.34529 19.7772 1.49715 19.7655 1.64219 19.7241C1.78722 19.6828 1.92246 19.6127 2.03986 19.518C2.15727 19.4234 2.25444 19.3061 2.32561 19.1731C4.02436 16.2368 7.02435 14.4856 10.3515 14.4856C13.6787 14.4856 16.6787 16.2378 18.3775 19.1731C18.5317 19.4211 18.7763 19.5994 19.0596 19.6703C19.3429 19.7412 19.6427 19.6992 19.8956 19.5531C20.1485 19.407 20.3346 19.1683 20.4147 18.8874C20.4948 18.6066 20.4625 18.3056 20.3247 18.0481ZM5.47654 7.36059C5.47654 6.39641 5.76246 5.45388 6.29813 4.65219C6.8338 3.8505 7.59517 3.22566 8.48596 2.85668C9.37675 2.4877 10.357 2.39116 11.3026 2.57926C12.2483 2.76737 13.1169 3.23167 13.7987 3.91345C14.4805 4.59523 14.9448 5.46387 15.1329 6.40953C15.321 7.35518 15.2244 8.33538 14.8555 9.22617C14.4865 10.117 13.8616 10.8783 13.0599 11.414C12.2583 11.9497 11.3157 12.2356 10.3515 12.2356C9.05907 12.2341 7.81996 11.72 6.90604 10.8061C5.99212 9.89218 5.47803 8.65307 5.47654 7.36059Z" fill="white"/>
</svg>
