<svg width="21" height="21" viewBox="0 0 21 21" fill="none" xmlns="http://www.w3.org/2000/svg">
<path d="M10.3333 0.23278C15.8563 0.23278 20.3333 4.70978 20.3333 10.2328C20.3345 11.7854 19.9738 13.3168 19.2796 14.7056C18.5854 16.0943 17.5769 17.302 16.3343 18.2328H18.3333C18.5985 18.2328 18.8528 18.3381 19.0404 18.5257C19.2279 18.7132 19.3333 18.9676 19.3333 19.2328C19.3333 19.498 19.2279 19.7524 19.0404 19.9399C18.8528 20.1274 18.5985 20.2328 18.3333 20.2328H10.3333C4.81025 20.2328 0.333252 15.7558 0.333252 10.2328C0.333252 4.70978 4.81025 0.23278 10.3333 0.23278ZM10.3333 12.2328C9.80282 12.2328 9.29411 12.4435 8.91904 12.8186C8.54397 13.1936 8.33325 13.7023 8.33325 14.2328C8.33325 14.7632 8.54397 15.2719 8.91904 15.647C9.29411 16.0221 9.80282 16.2328 10.3333 16.2328C10.8637 16.2328 11.3724 16.0221 11.7475 15.647C12.1225 15.2719 12.3333 14.7632 12.3333 14.2328C12.3333 13.7023 12.1225 13.1936 11.7475 12.8186C11.3724 12.4435 10.8637 12.2328 10.3333 12.2328ZM6.33325 8.23278C5.80282 8.23278 5.29411 8.44349 4.91904 8.81857C4.54397 9.19364 4.33325 9.70235 4.33325 10.2328C4.33325 10.7632 4.54397 11.2719 4.91904 11.647C5.29411 12.0221 5.80282 12.2328 6.33325 12.2328C6.86369 12.2328 7.37239 12.0221 7.74747 11.647C8.12254 11.2719 8.33325 10.7632 8.33325 10.2328C8.33325 9.70235 8.12254 9.19364 7.74747 8.81857C7.37239 8.44349 6.86369 8.23278 6.33325 8.23278ZM14.3333 8.23278C13.8028 8.23278 13.2941 8.44349 12.919 8.81857C12.544 9.19364 12.3333 9.70235 12.3333 10.2328C12.3333 10.7632 12.544 11.2719 12.919 11.647C13.2941 12.0221 13.8028 12.2328 14.3333 12.2328C14.8637 12.2328 15.3724 12.0221 15.7475 11.647C16.1225 11.2719 16.3333 10.7632 16.3333 10.2328C16.3333 9.70235 16.1225 9.19364 15.7475 8.81857C15.3724 8.44349 14.8637 8.23278 14.3333 8.23278ZM10.3333 4.23278C9.80282 4.23278 9.29411 4.44349 8.91904 4.81857C8.54397 5.19364 8.33325 5.70235 8.33325 6.23278C8.33325 6.76321 8.54397 7.27192 8.91904 7.64699C9.29411 8.02207 9.80282 8.23278 10.3333 8.23278C10.8637 8.23278 11.3724 8.02207 11.7475 7.64699C12.1225 7.27192 12.3333 6.76321 12.3333 6.23278C12.3333 5.70235 12.1225 5.19364 11.7475 4.81857C11.3724 4.44349 10.8637 4.23278 10.3333 4.23278Z" fill="white"/>
</svg>
