<svg width="24" height="25" viewBox="0 0 24 25" fill="none" xmlns="http://www.w3.org/2000/svg">
<path d="M21.9734 20.1875C20.688 17.9316 18.6809 16.1738 16.2752 15.1972C17.4716 14.2999 18.3553 13.049 18.8011 11.6216C19.247 10.1942 19.2325 8.66274 18.7596 7.24407C18.2867 5.8254 17.3794 4.59148 16.1663 3.71709C14.9531 2.84271 13.4956 2.37219 12.0002 2.37219C10.5048 2.37219 9.04731 2.84271 7.83416 3.71709C6.62102 4.59148 5.71375 5.8254 5.24086 7.24407C4.76797 8.66274 4.75343 10.1942 5.19932 11.6216C5.6452 13.049 6.52889 14.2999 7.72522 15.1972C5.31953 16.1738 3.31245 17.9316 2.0271 20.1875C1.94745 20.3156 1.89437 20.4583 1.87101 20.6073C1.84764 20.7563 1.85447 20.9085 1.89109 21.0548C1.92771 21.2011 1.99337 21.3385 2.08416 21.4589C2.17496 21.5794 2.28904 21.6803 2.41963 21.7557C2.55021 21.8312 2.69463 21.8796 2.8443 21.8981C2.99397 21.9166 3.14584 21.9049 3.29087 21.8635C3.4359 21.8222 3.57114 21.7521 3.68854 21.6574C3.80595 21.5628 3.90312 21.4455 3.97429 21.3125C5.67304 18.3763 8.67304 16.625 12.0002 16.625C15.3274 16.625 18.3274 18.3772 20.0262 21.3125C20.1804 21.5605 20.425 21.7388 20.7083 21.8097C20.9916 21.8806 21.2914 21.8386 21.5443 21.6925C21.7972 21.5464 21.9833 21.3077 22.0634 21.0268C22.1434 20.746 22.1112 20.445 21.9734 20.1875ZM7.12523 9.5C7.12523 8.53582 7.41114 7.59329 7.94681 6.7916C8.48248 5.98991 9.24385 5.36507 10.1346 4.99609C11.0254 4.62712 12.0056 4.53057 12.9513 4.71868C13.8969 4.90678 14.7656 5.37108 15.4474 6.05286C16.1292 6.73464 16.5935 7.60328 16.7816 8.54894C16.9697 9.4946 16.8731 10.4748 16.5041 11.3656C16.1352 12.2564 15.5103 13.0177 14.7086 13.5534C13.9069 14.0891 12.9644 14.375 12.0002 14.375C10.7078 14.3735 9.46864 13.8594 8.55472 12.9455C7.64081 12.0316 7.12671 10.7925 7.12523 9.5Z" fill="white"/>
</svg>
