<svg width="25" height="25" viewBox="0 0 25 25" fill="none" xmlns="http://www.w3.org/2000/svg">
<path fill-rule="evenodd" clip-rule="evenodd" d="M14.6743 19.503L14.6803 17.5C14.6803 17.2341 14.7859 16.9791 14.9739 16.7911C15.1619 16.6031 15.4169 16.4975 15.6828 16.4975C15.9486 16.4975 16.2036 16.6031 16.3916 16.7911C16.5796 16.9791 16.6853 17.2341 16.6853 17.5V19.477C16.6853 19.958 16.6853 20.199 16.8393 20.347C16.9943 20.494 17.2293 20.484 17.7023 20.464C19.5653 20.385 20.7103 20.134 21.5163 19.328C22.3263 18.522 22.5773 17.377 22.6563 15.511C22.6713 15.141 22.6793 14.955 22.6103 14.832C22.5403 14.709 22.2653 14.555 21.7133 14.246C21.4023 14.0727 21.1433 13.8194 20.963 13.5125C20.7827 13.2055 20.6877 12.856 20.6877 12.5C20.6877 12.144 20.7827 11.7945 20.963 11.4875C21.1433 11.1806 21.4023 10.9273 21.7133 10.754C22.2653 10.446 22.5413 10.291 22.6103 10.168C22.6793 10.045 22.6713 9.86 22.6553 9.489C22.5773 7.623 22.3253 6.479 21.5163 5.672C20.6393 4.796 19.3613 4.575 17.1943 4.519C17.1279 4.51726 17.0619 4.52884 17.0001 4.55303C16.9383 4.57723 16.8819 4.61357 16.8344 4.65989C16.7869 4.70622 16.7491 4.76159 16.7233 4.82275C16.6975 4.88392 16.6842 4.94962 16.6843 5.016V7.5C16.6843 7.76588 16.5786 8.02087 16.3906 8.20887C16.2026 8.39688 15.9476 8.5025 15.6818 8.5025C15.4159 8.5025 15.1609 8.39688 14.9729 8.20887C14.7849 8.02087 14.6793 7.76588 14.6793 7.5L14.6723 4.999C14.672 4.86657 14.6192 4.73964 14.5255 4.64609C14.4317 4.55254 14.3047 4.5 14.1723 4.5H10.6603C6.88027 4.5 4.99027 4.5 3.81527 5.672C3.00527 6.478 2.75427 7.623 2.67527 9.489C2.66027 9.859 2.65227 10.045 2.72127 10.168C2.79127 10.291 3.06627 10.446 3.61827 10.754C3.9292 10.9273 4.18821 11.1806 4.36851 11.4875C4.54882 11.7945 4.64388 12.144 4.64388 12.5C4.64388 12.856 4.54882 13.2055 4.36851 13.5125C4.18821 13.8194 3.9292 14.0727 3.61827 14.246C3.06627 14.555 2.79027 14.709 2.72127 14.832C2.65227 14.955 2.66027 15.14 2.67627 15.51C2.75427 17.377 3.00627 18.522 3.81527 19.328C4.99027 20.5 6.88027 20.5 10.6613 20.5H13.6713C14.1433 20.5 14.3783 20.5 14.5253 20.354C14.6723 20.208 14.6733 19.974 14.6743 19.503ZM16.6843 13.5V11.5C16.6843 11.2341 16.5786 10.9791 16.3906 10.7911C16.2026 10.6031 15.9476 10.4975 15.6818 10.4975C15.4159 10.4975 15.1609 10.6031 14.9729 10.7911C14.7849 10.9791 14.6793 11.2341 14.6793 11.5V13.5C14.6793 13.766 14.7849 14.0211 14.973 14.2092C15.1611 14.3973 15.4163 14.503 15.6823 14.503C15.9483 14.503 16.2034 14.3973 16.3915 14.2092C16.5796 14.0211 16.6843 13.766 16.6843 13.5Z" fill="white"/>
</svg>
