<svg width="19" height="20" viewBox="0 0 19 20" fill="none" xmlns="http://www.w3.org/2000/svg">
<path d="M9.72325 0.384822C9.61457 0.2867 9.47626 0.23278 9.33325 0.23278C9.19024 0.23278 9.05193 0.2867 8.94325 0.384822L0.333252 8.1748V17.3328C0.333252 17.8367 0.522894 18.32 0.86046 18.6763C1.19803 19.0326 1.65586 19.2328 2.13325 19.2328H6.93325C7.09238 19.2328 7.24499 19.1661 7.35752 19.0473C7.47004 18.9285 7.53325 18.7674 7.53325 18.5994V14.7995C7.53325 14.2955 7.72289 13.8123 8.06046 13.456C8.39803 13.0996 8.85586 12.8995 9.33325 12.8995C9.81064 12.8995 10.2685 13.0996 10.606 13.456C10.9436 13.8123 11.1333 14.2955 11.1333 14.7995V18.5994C11.1333 18.7674 11.1965 18.9285 11.309 19.0473C11.4215 19.1661 11.5741 19.2328 11.7333 19.2328H16.5333C17.0106 19.2328 17.4685 19.0326 17.806 18.6763C18.1436 18.32 18.3333 17.8367 18.3333 17.3328V8.1748L9.72325 0.384822Z" fill="white"/>
</svg>
